<svg width="22" height="24" viewBox="0 0 22 24" fill="none" xmlns="http://www.w3.org/2000/svg">
<path d="M20.4492 8.59312C21.0166 9.17178 21.3333 9.94227 21.3333 10.7437V20.8917C21.3333 22.6084 19.9095 24 18.1532 24H14.0034C14.6687 19.7234 14.4918 16.7013 13.6283 14.6921C13.1478 13.5739 12.4471 12.7532 11.5544 12.2289C10.6673 11.7079 9.65312 11.5162 8.60251 11.5474C6.53072 11.609 4.18573 12.541 1.96933 13.7809C1.30623 14.1518 0.646663 14.5549 0 14.9785V10.7437C0 9.94227 0.316747 9.17178 0.884112 8.59312L8.37066 0.957635C9.6226 -0.319212 11.7107 -0.319211 12.9627 0.957636L20.4492 8.59312Z" fill="#006AFF"/>
<path d="M0 16.868V20.8917C0 22.6084 1.42379 24 3.18012 24H12.3943C13.0882 19.6939 12.8711 16.9431 12.1624 15.294C11.7918 14.4318 11.2956 13.8901 10.7354 13.5611C10.1698 13.2288 9.47517 13.0763 8.65086 13.1008C6.97282 13.1507 4.90337 13.9303 2.75917 15.1297C1.8267 15.6514 0.896846 16.2428 0 16.868Z" fill="#006AFF"/>
</svg>
